<?xml version="1.0" encoding="utf-8"?>
<!-- Generator: Adobe Illustrator 14.0.0, SVG Export Plug-In . SVG Version: 6.00 Build 43363)  -->
<!DOCTYPE svg PUBLIC "-//W3C//DTD SVG 1.1//EN" "http://www.w3.org/Graphics/SVG/1.1/DTD/svg11.dtd">
<svg version="1.1" id="Layer_1" xmlns="http://www.w3.org/2000/svg" xmlns:xlink="http://www.w3.org/1999/xlink" x="0px" y="0px"
	 width="283.46px" height="154.667px" viewBox="0 0 283.46 154.667" enable-background="new 0 0 283.46 154.667"
	 xml:space="preserve">
<g>
	<polygon opacity="0.61" fill="#7DAC4C" points="30.921,76.439 60.678,67.411 90.701,78.157 106.537,103.969 97.577,132.013 
		65.338,144.955 30.579,132.022 17.125,102.899 	"/>
	<polygon opacity="0.2" fill="#1B9B55" points="89.875,24.299 83.612,46.587 60.588,67.402 30.931,76.428 7.722,69.795 
		7.169,45.665 34.246,19.141 70.534,9.747 	"/>
	<polygon opacity="0.2" fill="#B9AD2E" points="108.479,22.64 89.875,24.299 83.612,46.587 90.611,78.085 106.454,104.057 
		125.057,111.61 136.293,90.979 129.479,52.112 	"/>
	<polygon opacity="0.2" fill="#7DAC4C" points="118.977,83.979 136.293,90.979 125.057,111.61 97.242,132.24 65.561,144.948 
		42.719,144.029 46.22,125.241 79.191,98.164 	"/>
	<polygon opacity="0.61" fill="#88AB29" points="129.479,52.112 118.977,83.979 136.293,90.979 	"/>
	<polygon opacity="0.61" fill="#84AF3F" points="7.169,45.665 17.668,48.43 34.246,19.141 	"/>
	<polygon opacity="0.61" fill="#FECD12" points="83.612,46.587 90.611,78.085 60.588,67.402 	"/>
	<polygon opacity="0.61" fill="#C4AC23" points="70.534,9.747 89.875,24.299 108.479,22.64 	"/>
	<polygon opacity="0.48" fill="#006E47" points="17.115,102.951 30.931,76.428 7.722,69.795 	"/>
	<polygon opacity="0.61" fill="#4BA852" points="65.743,144.948 30.579,132.046 42.719,144.029 	"/>
	<polygon opacity="0.48" fill="#7CA44D" points="125.057,111.61 106.454,104.057 97.429,132.047 	"/>
	<polygon opacity="0.48" fill="#2B8A45" points="17.668,48.43 34.927,82.326 46.162,125.168 42.719,144.029 30.563,132.055 
		17.115,102.951 7.722,69.795 7.169,45.665 	"/>
	<polygon opacity="0.61" fill="#4BA852" points="34.799,82.138 79.191,98.164 46.22,125.241 	"/>
	<polygon opacity="0.61" fill="#97B911" points="118.977,83.979 79.191,98.164 46.306,125.068 42.719,144.029 65.561,144.948 
		97.242,132.24 125.057,111.61 136.293,90.979 	"/>
	<polygon opacity="0.61" fill="#BBBB3C" points="34.246,19.141 70.534,9.747 108.479,22.64 129.479,52.112 118.977,83.979 
		79.191,98.164 34.799,82.138 17.668,48.43 	"/>
</g>
<g opacity="0.61">
	<g>
		<path fill="#4BA852" d="M151.086,79.282h6.33c4.178,0,6.268,2.089,6.268,6.267v40.728h-9.4V88.681h-6.267L151.086,79.282z"/>
		<path fill="#4BA852" d="M176.245,113.746c-4.177,0-6.267-2.089-6.267-6.265V85.549c0-4.178,2.09-6.267,6.267-6.267h25.066
			c4.176,0,6.265,2.089,6.265,6.267v34.463c0,4.175-2.089,6.265-6.265,6.265h-25.185l3.136-9.397h18.914v-3.134H176.245z
			 M198.177,88.681h-18.8v15.665h18.8V88.681z"/>
		<path fill="#4BA852" d="M251.438,120.012c0,4.175-2.089,6.265-6.265,6.265h-25.065c-4.179,0-6.266-2.089-6.266-6.265V85.549
			c0-4.178,2.087-6.267,6.266-6.267h25.065c4.176,0,6.265,2.089,6.265,6.267V120.012z M223.241,88.681v28.198h18.799V88.681H223.241
			z"/>
		<path fill="#4BA852" d="M260.745,79.282h6.327c4.178,0,6.267,2.089,6.267,6.267v40.728h-9.399V88.681h-6.265L260.745,79.282z"/>
	</g>
	<g>
		<path fill="#4BA852" d="M148.017,73.246V26.249h31.336c4.174,0,6.261,2.089,6.261,6.266l-0.03,34.463
			c0,4.178-2.088,6.267-6.262,6.267H148.017z M176.214,35.647h-18.798v28.199h18.798V35.647z"/>
		<path fill="#4BA852" d="M191.878,73.263V32.5c0-4.176,2.09-6.266,6.268-6.266h25.064c4.179,0,6.267,2.089,6.267,6.266v40.763
			h-9.399V60.698h-18.8v12.565H191.878z M220.077,35.633h-18.8v15.665h18.8V35.633z"/>
		<path fill="#4BA852" d="M273.339,66.979c0,4.178-2.089,6.267-6.264,6.267h-25.064c-4.179,0-6.269-2.089-6.269-6.267V32.515
			c0-4.177,2.09-6.266,6.269-6.266h25.064c4.175,0,6.264,2.089,6.264,6.266V66.979z M245.143,35.647v28.199h18.797V35.647H245.143z"
			/>
	</g>
</g>
</svg>
