<?xml version="1.0" encoding="UTF-8" standalone="no"?><svg xmlns="http://www.w3.org/2000/svg" xmlns:xlink="http://www.w3.org/1999/xlink" clip-rule="evenodd" stroke-miterlimit="4.00" viewBox="0 0 1024 768"><desc>SVG generated by Keynote</desc><defs></defs><g transform="matrix(1.00, 0.00, -0.00, -1.00, 0.0, 768.0)"><path d="M 0.0 768.0 L 1024.0 768.0 L 1024.0 0.0 L 0.0 0.0 Z M 0.0 768.0 " fill="#FEFFFF"></path><image xlink:href="../../615F7CD4-E262-41F7-8138-806EC6AB1FAB/assets/7E27D7D74B2DA92C336D6AD660991410.png" width="106.00" height="106.00" transform="matrix(1.00, 0.00, -0.00, -1.00, 112.0, 582.0)" opacity="0.50"></image><g><clipPath id="clip-26"><path d="M 115.0 581.0 L 215.0 581.0 L 215.0 481.0 L 115.0 481.0 Z M 115.0 581.0 "></path></clipPath><g clip-path="url(#clip-26)"><image xlink:href="../../615F7CD4-E262-41F7-8138-806EC6AB1FAB/assets/D5BAA0E7A80E113D25EB92D00157B4C8.jpeg" width="300.00" height="300.00" transform="matrix(1.00, 0.00, -0.00, -1.00, 115.0, 581.0)"></image><path d="M 115.0 581.0 L 215.0 581.0 L 215.0 481.0 L 115.0 481.0 Z M 115.0 581.0 " fill="#009BFC" fill-opacity="0.50"></path></g></g><g><clipPath id="clip-27"><path d="M 113.0 481.0 L 217.0 481.0 L 217.0 581.0 L 113.0 581.0 Z M 113.0 481.0 "></path></clipPath><g clip-path="url(#clip-27)"><text xml:space="preserve" font-family="Helvetica-Light" font-size="24.0" fill="#FEFFFE" transform="matrix(1.00, 0.00, -0.00, -1.00, 135.0, 522.0)">R</text><text xml:space="preserve" font-family="Helvetica-Light" font-size="24.0" fill="#FEFFFE" transform="matrix(1.00, 0.00, -0.00, -1.00, 151.0, 522.0)">ô</text><text xml:space="preserve" font-family="Helvetica-Light" font-size="24.0" fill="#FEFFFE" transform="matrix(1.00, 0.00, -0.00, -1.00, 164.4, 522.0)">l</text><text xml:space="preserve" font-family="Helvetica-Light" font-size="24.0" fill="#FEFFFE" transform="matrix(1.00, 0.00, -0.00, -1.00, 169.7, 522.0)">e</text><text xml:space="preserve" font-family="Helvetica-Light" font-size="24.0" fill="#FEFFFE" transform="matrix(1.00, 0.00, -0.00, -1.00, 183.0, 522.0)">s</text></g></g><text xml:space="preserve" font-family="Helvetica-Light" font-size="36.0" fill="#000000" transform="matrix(1.00, 0.00, -0.00, -1.00, 103.0, 706.0)">S</text><text xml:space="preserve" font-family="Helvetica-Light" font-size="36.0" fill="#000000" transform="matrix(1.00, 0.00, -0.00, -1.00, 125.0, 706.0)">e</text><text xml:space="preserve" font-family="Helvetica-Light" font-size="36.0" fill="#000000" transform="matrix(1.00, 0.00, -0.00, -1.00, 145.0, 706.0)">c</text><text xml:space="preserve" font-family="Helvetica-Light" font-size="36.0" fill="#000000" transform="matrix(1.00, 0.00, -0.00, -1.00, 165.0, 706.0)">r</text><text xml:space="preserve" font-family="Helvetica-Light" font-size="36.0" fill="#000000" transform="matrix(1.00, 0.00, -0.00, -1.00, 176.4, 706.0)">é</text><text xml:space="preserve" font-family="Helvetica-Light" font-size="36.0" fill="#000000" transform="matrix(1.00, 0.00, -0.00, -1.00, 196.4, 706.0)">t</text><text xml:space="preserve" font-family="Helvetica-Light" font-size="36.0" fill="#000000" transform="matrix(1.00, 0.00, -0.00, -1.00, 206.4, 706.0)">a</text><text xml:space="preserve" font-family="Helvetica-Light" font-size="36.0" fill="#000000" transform="matrix(1.00, 0.00, -0.00, -1.00, 226.4, 706.0)">i</text><text xml:space="preserve" font-family="Helvetica-Light" font-size="36.0" fill="#000000" transform="matrix(1.00, 0.00, -0.00, -1.00, 234.4, 706.0)">r</text><text xml:space="preserve" font-family="Helvetica-Light" font-size="36.0" fill="#000000" transform="matrix(1.00, 0.00, -0.00, -1.00, 245.7, 706.0)">e</text><text xml:space="preserve" font-family="Helvetica-Light" font-size="36.0" fill="#000000" transform="matrix(1.00, 0.00, -0.00, -1.00, 265.8, 706.0)"> </text><text xml:space="preserve" font-family="Helvetica-Light" font-size="36.0" fill="#000000" transform="matrix(1.00, 0.00, -0.00, -1.00, 275.8, 706.0)">g</text><text xml:space="preserve" font-family="Helvetica-Light" font-size="36.0" fill="#000000" transform="matrix(1.00, 0.00, -0.00, -1.00, 297.8, 706.0)">é</text><text xml:space="preserve" font-family="Helvetica-Light" font-size="36.0" fill="#000000" transform="matrix(1.00, 0.00, -0.00, -1.00, 317.8, 706.0)">n</text><text xml:space="preserve" font-family="Helvetica-Light" font-size="36.0" fill="#000000" transform="matrix(1.00, 0.00, -0.00, -1.00, 337.8, 706.0)">é</text><text xml:space="preserve" font-family="Helvetica-Light" font-size="36.0" fill="#000000" transform="matrix(1.00, 0.00, -0.00, -1.00, 357.8, 706.0)">r</text><text xml:space="preserve" font-family="Helvetica-Light" font-size="36.0" fill="#000000" transform="matrix(1.00, 0.00, -0.00, -1.00, 369.8, 706.0)">a</text><text xml:space="preserve" font-family="Helvetica-Light" font-size="36.0" fill="#000000" transform="matrix(1.00, 0.00, -0.00, -1.00, 389.8, 706.0)">l</text><text xml:space="preserve" font-family="Helvetica-Light" font-size="36.0" fill="#000000" transform="matrix(1.00, 0.00, -0.00, -1.00, 397.8, 706.0)"> </text><text xml:space="preserve" font-family="Helvetica-Light" font-size="36.0" fill="#000000" transform="matrix(1.00, 0.00, -0.00, -1.00, 407.8, 706.0)">s</text><text xml:space="preserve" font-family="Helvetica-Light" font-size="36.0" fill="#000000" transform="matrix(1.00, 0.00, -0.00, -1.00, 425.8, 706.0)">u</text><text xml:space="preserve" font-family="Helvetica-Light" font-size="36.0" fill="#000000" transform="matrix(1.00, 0.00, -0.00, -1.00, 445.8, 706.0)">i</text><text xml:space="preserve" font-family="Helvetica-Light" font-size="36.0" fill="#000000" transform="matrix(1.00, 0.00, -0.00, -1.00, 453.8, 706.0)">t</text><text xml:space="preserve" font-family="Helvetica-Light" font-size="36.0" fill="#000000" transform="matrix(1.00, 0.00, -0.00, -1.00, 463.8, 706.0)">e</text><text xml:space="preserve" font-family="Helvetica-Light" font-size="36.0" fill="#000000" transform="matrix(1.00, 0.00, -0.00, -1.00, 483.8, 706.0)"> </text><text xml:space="preserve" font-family="Helvetica-Light" font-size="36.0" fill="#000000" transform="matrix(1.00, 0.00, -0.00, -1.00, 493.9, 706.0)">à</text><text xml:space="preserve" font-family="Helvetica-Light" font-size="36.0" fill="#000000" transform="matrix(1.00, 0.00, -0.00, -1.00, 513.9, 706.0)"> </text><text xml:space="preserve" font-family="Helvetica-Light" font-size="36.0" fill="#000000" transform="matrix(1.00, 0.00, -0.00, -1.00, 523.9, 706.0)">p</text><text xml:space="preserve" font-family="Helvetica-Light" font-size="36.0" fill="#000000" transform="matrix(1.00, 0.00, -0.00, -1.00, 545.9, 706.0)">r</text><text xml:space="preserve" font-family="Helvetica-Light" font-size="36.0" fill="#000000" transform="matrix(1.00, 0.00, -0.00, -1.00, 557.2, 706.0)">o</text><text xml:space="preserve" font-family="Helvetica-Light" font-size="36.0" fill="#000000" transform="matrix(1.00, 0.00, -0.00, -1.00, 577.2, 706.0)">p</text><text xml:space="preserve" font-family="Helvetica-Light" font-size="36.0" fill="#000000" transform="matrix(1.00, 0.00, -0.00, -1.00, 599.2, 706.0)">o</text><text xml:space="preserve" font-family="Helvetica-Light" font-size="36.0" fill="#000000" transform="matrix(1.00, 0.00, -0.00, -1.00, 619.2, 706.0)">s</text><text xml:space="preserve" font-family="Helvetica-Light" font-size="36.0" fill="#000000" transform="matrix(1.00, 0.00, -0.00, -1.00, 637.2, 706.0)">a</text><text xml:space="preserve" font-family="Helvetica-Light" font-size="36.0" fill="#000000" transform="matrix(1.00, 0.00, -0.00, -1.00, 657.3, 706.0)">l</text><path d="M 0.0 0.0 L 74.6 0.0 L 75.6 0.0 " fill="none" stroke="#000000" stroke-width="2.00" transform="matrix(0.00, -1.00, -1.00, 0.00, 156.0, 675.3)"></path><path d="M 151.2 600.8 L 156.0 591.2 L 160.8 600.8 Z M 151.2 600.8 " fill="#000000"></path><text xml:space="preserve" font-family="Helvetica-Light" font-size="14.0" fill="#000000" transform="matrix(1.00, 0.00, -0.00, -1.00, 198.0, 628.0)">C</text><text xml:space="preserve" font-family="Helvetica-Light" font-size="14.0" fill="#000000" transform="matrix(1.00, 0.00, -0.00, -1.00, 208.1, 628.0)">r</text><text xml:space="preserve" font-family="Helvetica-Light" font-size="14.0" fill="#000000" transform="matrix(1.00, 0.00, -0.00, -1.00, 212.5, 628.0)">é</text><text xml:space="preserve" font-family="Helvetica-Light" font-size="14.0" fill="#000000" transform="matrix(1.00, 0.00, -0.00, -1.00, 220.3, 628.0)">e</text><path d="M 0.0 0.0 L 250.0 0.0 L 251.0 0.0 " fill="none" stroke="#000000" stroke-width="2.00" transform="matrix(-1.00, 0.00, 0.00, 1.00, 514.4, 541.2)"></path><path d="M 264.4 546.0 L 254.8 541.2 L 264.4 536.4 Z M 264.4 546.0 " fill="#000000"></path><path d="M 0.0 0.0 L 153.2 0.0 " fill="none" stroke="#000000" stroke-width="2.00" transform="matrix(0.00, -1.00, -1.00, 0.00, 514.3, 696.3)"></path><image xlink:href="../../615F7CD4-E262-41F7-8138-806EC6AB1FAB/assets/45D6C868FFE1043EFAFA325A6F5F0312.png" width="191.00" height="106.00" transform="matrix(1.00, 0.00, -0.00, -1.00, 418.8, 602.5)" opacity="0.50"></image><g><clipPath id="clip-28"><path d="M 421.8 601.5 L 606.8 601.5 L 606.8 501.5 L 421.8 501.5 Z M 421.8 601.5 "></path></clipPath><g clip-path="url(#clip-28)"><image xlink:href="../../615F7CD4-E262-41F7-8138-806EC6AB1FAB/assets/D5BAA0E7A80E113D25EB92D00157B4C8.jpeg" width="300.00" height="300.00" transform="matrix(1.00, 0.00, -0.00, -1.00, 421.8, 601.5)"></image><path d="M 421.8 601.5 L 606.8 601.5 L 606.8 501.5 L 421.8 501.5 Z M 421.8 601.5 " fill="#FF2A05" fill-opacity="0.50"></path></g></g><g><clipPath id="clip-29"><path d="M 419.8 501.5 L 608.8 501.5 L 608.8 601.5 L 419.8 601.5 Z M 419.8 501.5 "></path></clipPath><g clip-path="url(#clip-29)"><text xml:space="preserve" font-family="Helvetica-Light" font-size="24.0" fill="#FEFFFE" transform="matrix(1.00, 0.00, -0.00, -1.00, 464.0, 542.0)">M</text><text xml:space="preserve" font-family="Helvetica-Light" font-size="24.0" fill="#FEFFFE" transform="matrix(1.00, 0.00, -0.00, -1.00, 484.0, 542.0)">e</text><text xml:space="preserve" font-family="Helvetica-Light" font-size="24.0" fill="#FEFFFE" transform="matrix(1.00, 0.00, -0.00, -1.00, 497.3, 542.0)">m</text><text xml:space="preserve" font-family="Helvetica-Light" font-size="24.0" fill="#FEFFFE" transform="matrix(1.00, 0.00, -0.00, -1.00, 517.3, 542.0)">b</text><text xml:space="preserve" font-family="Helvetica-Light" font-size="24.0" fill="#FEFFFE" transform="matrix(1.00, 0.00, -0.00, -1.00, 532.0, 542.0)">r</text><text xml:space="preserve" font-family="Helvetica-Light" font-size="24.0" fill="#FEFFFE" transform="matrix(1.00, 0.00, -0.00, -1.00, 539.6, 542.0)">e</text><text xml:space="preserve" font-family="Helvetica-Light" font-size="24.0" fill="#FEFFFE" transform="matrix(1.00, 0.00, -0.00, -1.00, 552.9, 542.0)">s</text></g></g><text xml:space="preserve" font-family="Helvetica-Light" font-size="14.0" fill="#000000" transform="matrix(1.00, 0.00, -0.00, -1.00, 94.0, 63.0)">Q</text><text xml:space="preserve" font-family="Helvetica-Light" font-size="14.0" fill="#000000" transform="matrix(1.00, 0.00, -0.00, -1.00, 104.9, 63.0)">u</text><text xml:space="preserve" font-family="Helvetica-Light" font-size="14.0" fill="#000000" transform="matrix(1.00, 0.00, -0.00, -1.00, 112.7, 63.0)">e</text><text xml:space="preserve" font-family="Helvetica-Light" font-size="14.0" fill="#000000" transform="matrix(1.00, 0.00, -0.00, -1.00, 120.5, 63.0)">l</text><text xml:space="preserve" font-family="Helvetica-Light" font-size="14.0" fill="#000000" transform="matrix(1.00, 0.00, -0.00, -1.00, 123.6, 63.0)"> </text><text xml:space="preserve" font-family="Helvetica-Light" font-size="14.0" fill="#000000" transform="matrix(1.00, 0.00, -0.00, -1.00, 127.5, 63.0)">e</text><text xml:space="preserve" font-family="Helvetica-Light" font-size="14.0" fill="#000000" transform="matrix(1.00, 0.00, -0.00, -1.00, 135.2, 63.0)">s</text><text xml:space="preserve" font-family="Helvetica-Light" font-size="14.0" fill="#000000" transform="matrix(1.00, 0.00, -0.00, -1.00, 142.2, 63.0)">t</text><text xml:space="preserve" font-family="Helvetica-Light" font-size="14.0" fill="#000000" transform="matrix(1.00, 0.00, -0.00, -1.00, 146.1, 63.0)"> </text><text xml:space="preserve" font-family="Helvetica-Light" font-size="14.0" fill="#000000" transform="matrix(1.00, 0.00, -0.00, -1.00, 150.0, 63.0)">l</text><text xml:space="preserve" font-family="Helvetica-Light" font-size="14.0" fill="#000000" transform="matrix(1.00, 0.00, -0.00, -1.00, 153.1, 63.0)">e</text><text xml:space="preserve" font-family="Helvetica-Light" font-size="14.0" fill="#000000" transform="matrix(1.00, 0.00, -0.00, -1.00, 160.9, 63.0)"> </text><text xml:space="preserve" font-family="Helvetica-Light" font-size="14.0" fill="#000000" transform="matrix(1.00, 0.00, -0.00, -1.00, 164.8, 63.0)">d</text><text xml:space="preserve" font-family="Helvetica-Light" font-size="14.0" fill="#000000" transform="matrix(1.00, 0.00, -0.00, -1.00, 173.4, 63.0)">é</text><text xml:space="preserve" font-family="Helvetica-Light" font-size="14.0" fill="#000000" transform="matrix(1.00, 0.00, -0.00, -1.00, 181.2, 63.0)">l</text><text xml:space="preserve" font-family="Helvetica-Light" font-size="14.0" fill="#000000" transform="matrix(1.00, 0.00, -0.00, -1.00, 184.3, 63.0)">a</text><text xml:space="preserve" font-family="Helvetica-Light" font-size="14.0" fill="#000000" transform="matrix(1.00, 0.00, -0.00, -1.00, 192.0, 63.0)">i</text><text xml:space="preserve" font-family="Helvetica-Light" font-size="14.0" fill="#000000" transform="matrix(1.00, 0.00, -0.00, -1.00, 195.2, 63.0)">s</text><text xml:space="preserve" font-family="Helvetica-Light" font-size="14.0" fill="#000000" transform="matrix(1.00, 0.00, -0.00, -1.00, 202.2, 63.0)"> </text><text xml:space="preserve" font-family="Helvetica-Light" font-size="14.0" fill="#000000" transform="matrix(1.00, 0.00, -0.00, -1.00, 206.0, 63.0)">o</text><text xml:space="preserve" font-family="Helvetica-Light" font-size="14.0" fill="#000000" transform="matrix(1.00, 0.00, -0.00, -1.00, 213.8, 63.0)">u</text><text xml:space="preserve" font-family="Helvetica-Light" font-size="14.0" fill="#000000" transform="matrix(1.00, 0.00, -0.00, -1.00, 221.6, 63.0)"> </text><text xml:space="preserve" font-family="Helvetica-Light" font-size="14.0" fill="#000000" transform="matrix(1.00, 0.00, -0.00, -1.00, 225.5, 63.0)">l</text><text xml:space="preserve" font-family="Helvetica-Light" font-size="14.0" fill="#000000" transform="matrix(1.00, 0.00, -0.00, -1.00, 228.6, 63.0)">e</text><text xml:space="preserve" font-family="Helvetica-Light" font-size="14.0" fill="#000000" transform="matrix(1.00, 0.00, -0.00, -1.00, 236.4, 63.0)"> </text><text xml:space="preserve" font-family="Helvetica-Light" font-size="14.0" fill="#000000" transform="matrix(1.00, 0.00, -0.00, -1.00, 240.3, 63.0)">m</text><text xml:space="preserve" font-family="Helvetica-Light" font-size="14.0" fill="#000000" transform="matrix(1.00, 0.00, -0.00, -1.00, 251.9, 63.0)">é</text><text xml:space="preserve" font-family="Helvetica-Light" font-size="14.0" fill="#000000" transform="matrix(1.00, 0.00, -0.00, -1.00, 259.7, 63.0)">c</text><text xml:space="preserve" font-family="Helvetica-Light" font-size="14.0" fill="#000000" transform="matrix(1.00, 0.00, -0.00, -1.00, 267.5, 63.0)">a</text><text xml:space="preserve" font-family="Helvetica-Light" font-size="14.0" fill="#000000" transform="matrix(1.00, 0.00, -0.00, -1.00, 275.3, 63.0)">n</text><text xml:space="preserve" font-family="Helvetica-Light" font-size="14.0" fill="#000000" transform="matrix(1.00, 0.00, -0.00, -1.00, 283.1, 63.0)">i</text><text xml:space="preserve" font-family="Helvetica-Light" font-size="14.0" fill="#000000" transform="matrix(1.00, 0.00, -0.00, -1.00, 286.2, 63.0)">s</text><text xml:space="preserve" font-family="Helvetica-Light" font-size="14.0" fill="#000000" transform="matrix(1.00, 0.00, -0.00, -1.00, 293.2, 63.0)">m</text><text xml:space="preserve" font-family="Helvetica-Light" font-size="14.0" fill="#000000" transform="matrix(1.00, 0.00, -0.00, -1.00, 304.9, 63.0)">e</text><text xml:space="preserve" font-family="Helvetica-Light" font-size="14.0" fill="#000000" transform="matrix(1.00, 0.00, -0.00, -1.00, 312.6, 63.0)"> </text><text xml:space="preserve" font-family="Helvetica-Light" font-size="14.0" fill="#000000" transform="matrix(1.00, 0.00, -0.00, -1.00, 316.5, 63.0)">d</text><text xml:space="preserve" font-family="Helvetica-Light" font-size="14.0" fill="#000000" transform="matrix(1.00, 0.00, -0.00, -1.00, 325.1, 63.0)">e</text><text xml:space="preserve" font-family="Helvetica-Light" font-size="14.0" fill="#000000" transform="matrix(1.00, 0.00, -0.00, -1.00, 332.9, 63.0)"> </text><text xml:space="preserve" font-family="Helvetica-Light" font-size="14.0" fill="#000000" transform="matrix(1.00, 0.00, -0.00, -1.00, 336.8, 63.0)">f</text><text xml:space="preserve" font-family="Helvetica-Light" font-size="14.0" fill="#000000" transform="matrix(1.00, 0.00, -0.00, -1.00, 340.7, 63.0)">e</text><text xml:space="preserve" font-family="Helvetica-Light" font-size="14.0" fill="#000000" transform="matrix(1.00, 0.00, -0.00, -1.00, 348.4, 63.0)">r</text><text xml:space="preserve" font-family="Helvetica-Light" font-size="14.0" fill="#000000" transform="matrix(1.00, 0.00, -0.00, -1.00, 353.3, 63.0)">m</text><text xml:space="preserve" font-family="Helvetica-Light" font-size="14.0" fill="#000000" transform="matrix(1.00, 0.00, -0.00, -1.00, 365.0, 63.0)">e</text><text xml:space="preserve" font-family="Helvetica-Light" font-size="14.0" fill="#000000" transform="matrix(1.00, 0.00, -0.00, -1.00, 372.8, 63.0)">t</text><text xml:space="preserve" font-family="Helvetica-Light" font-size="14.0" fill="#000000" transform="matrix(1.00, 0.00, -0.00, -1.00, 376.7, 63.0)">u</text><text xml:space="preserve" font-family="Helvetica-Light" font-size="14.0" fill="#000000" transform="matrix(1.00, 0.00, -0.00, -1.00, 384.5, 63.0)">r</text><text xml:space="preserve" font-family="Helvetica-Light" font-size="14.0" fill="#000000" transform="matrix(1.00, 0.00, -0.00, -1.00, 388.9, 63.0)">e</text><text xml:space="preserve" font-family="Helvetica-Light" font-size="14.0" fill="#000000" transform="matrix(1.00, 0.00, -0.00, -1.00, 396.7, 63.0)"> </text><text xml:space="preserve" font-family="Helvetica-Light" font-size="14.0" fill="#000000" transform="matrix(1.00, 0.00, -0.00, -1.00, 400.6, 63.0)">d</text><text xml:space="preserve" font-family="Helvetica-Light" font-size="14.0" fill="#000000" transform="matrix(1.00, 0.00, -0.00, -1.00, 409.1, 63.0)">’</text><text xml:space="preserve" font-family="Helvetica-Light" font-size="14.0" fill="#000000" transform="matrix(1.00, 0.00, -0.00, -1.00, 412.2, 63.0)">u</text><text xml:space="preserve" font-family="Helvetica-Light" font-size="14.0" fill="#000000" transform="matrix(1.00, 0.00, -0.00, -1.00, 420.0, 63.0)">n</text><text xml:space="preserve" font-family="Helvetica-Light" font-size="14.0" fill="#000000" transform="matrix(1.00, 0.00, -0.00, -1.00, 427.8, 63.0)">e</text><text xml:space="preserve" font-family="Helvetica-Light" font-size="14.0" fill="#000000" transform="matrix(1.00, 0.00, -0.00, -1.00, 435.6, 63.0)"> </text><text xml:space="preserve" font-family="Helvetica-Light" font-size="14.0" fill="#000000" transform="matrix(1.00, 0.00, -0.00, -1.00, 439.5, 63.0)">p</text><text xml:space="preserve" font-family="Helvetica-Light" font-size="14.0" fill="#000000" transform="matrix(1.00, 0.00, -0.00, -1.00, 448.0, 63.0)">r</text><text xml:space="preserve" font-family="Helvetica-Light" font-size="14.0" fill="#000000" transform="matrix(1.00, 0.00, -0.00, -1.00, 452.4, 63.0)">o</text><text xml:space="preserve" font-family="Helvetica-Light" font-size="14.0" fill="#000000" transform="matrix(1.00, 0.00, -0.00, -1.00, 460.2, 63.0)">p</text><text xml:space="preserve" font-family="Helvetica-Light" font-size="14.0" fill="#000000" transform="matrix(1.00, 0.00, -0.00, -1.00, 468.8, 63.0)">o</text><text xml:space="preserve" font-family="Helvetica-Light" font-size="14.0" fill="#000000" transform="matrix(1.00, 0.00, -0.00, -1.00, 476.5, 63.0)">s</text><text xml:space="preserve" font-family="Helvetica-Light" font-size="14.0" fill="#000000" transform="matrix(1.00, 0.00, -0.00, -1.00, 483.5, 63.0)">a</text><text xml:space="preserve" font-family="Helvetica-Light" font-size="14.0" fill="#000000" transform="matrix(1.00, 0.00, -0.00, -1.00, 491.3, 63.0)">l</text><text xml:space="preserve" font-family="Helvetica-Light" font-size="14.0" fill="#000000" transform="matrix(1.00, 0.00, -0.00, -1.00, 494.4, 63.0)"> </text><text xml:space="preserve" font-family="Helvetica-Light" font-size="14.0" fill="#000000" transform="matrix(1.00, 0.00, -0.00, -1.00, 498.3, 63.0)">?</text></g></svg>